<?xml version="1.0" encoding="utf-8"?>
<!-- Generator: Adobe Illustrator 24.0.0, SVG Export Plug-In . SVG Version: 6.00 Build 0)  -->
<svg version="1.1" id="Layer_1" focusable="false" xmlns="http://www.w3.org/2000/svg" xmlns:xlink="http://www.w3.org/1999/xlink"
	 x="0px" y="0px" viewBox="0 0 448 512" style="enable-background:new 0 0 448 512;" xml:space="preserve">
<path d="M400,35.4H48c-26.4,0-48,21.6-48,48v352c0,26.4,21.6,48,48,48h352c26.4,0,48-21.6,48-48v-352C448,57,426.4,35.4,400,35.4z
	 M370.1,229.3c-28.7,0.1-56.7-8.9-80.1-25.6v116.6c0,58.6-47.5,106-106.1,106c-58.6,0-106-47.5-106-106.1c0-58.6,47.5-106,106.1-106
	c4.9,0,9.7,0.3,14.5,1v58.6c-25.6-8.1-53,6.2-61,31.8c-8.1,25.6,6.2,53,31.8,61c25.6,8.1,53-6.2,61-31.8c1.5-4.7,2.2-9.7,2.2-14.6
	V92.4H290c0,4.8,0.4,9.7,1.2,14.5c4,21.5,16.7,40.5,35.2,52.3c13,8.6,28.2,13.1,43.7,13.1V229.3z"/>
</svg>
